<?xml version="1.0" encoding="UTF-8"?><svg id="Layer_2" xmlns="http://www.w3.org/2000/svg" viewBox="0 0 169.1 54.5"><defs><style>.cls-1{fill:#000;stroke-width:0px;}</style></defs><g id="Layer_1-2"><path class="cls-1" d="M139.8,19.5c0,3.4-.7,6.4-2,9.1h0c-.1.3-.3.6-.4.8-.3.5-.6,1-.9,1.4h0c-1.5,2.2-3.4,4-5.8,5.3-2.8,1.6-6.1,2.5-9.9,2.5s-7-.8-9.9-2.5c-2.3-1.3-4.2-3.1-5.7-5.2-.4-.5-.7-1-1-1.5-1.5-2.6-2.3-5.6-2.4-9v-.9c0-2.5-.5-4.7-1.6-6.7-1.1-1.9-2.6-3.5-4.4-4.6-1.8-1.1-3.9-1.7-6.3-1.7s-4.4.6-6.2,1.7c-1.8,1.1-3.3,2.7-4.4,4.6-1.1,2-1.6,4.2-1.6,6.7s0,.6,0,1h0c0,1.1.2,11.9.2,11.9v18.6c0,1-.3,1.9-1,2.5-.6.7-1.5,1-2.5,1s-1.6-.2-2.3-.8h0l-.2-.2c-.7-.7-1-1.5-1-2.5v-31.5c0-3.6.9-6.9,2.5-9.8,1.7-2.9,3.9-5.2,6.8-6.9,2.8-1.7,6.1-2.5,9.7-2.5s6.9.8,9.7,2.5c2.3,1.4,4.3,3.2,5.8,5.4.3.5.7,1,1,1.5,1.7,2.9,2.5,6.2,2.5,9.8s0,.6,0,.8h0c0,2.2.6,4.1,1.6,5.9,1,1.9,2.5,3.5,4.3,4.6s4,1.6,6.3,1.6,4.5-.5,6.4-1.6c1.8-1.1,3.3-2.6,4.3-4.6,1-1.9,1.5-4.2,1.5-6.7s-.5-4.8-1.5-6.7-2.5-3.5-4.3-4.6c-1.8-1.1-4-1.7-6.4-1.7h0V.3h0c3.7,0,7,.8,9.8,2.4,2.9,1.6,5.1,3.9,6.7,6.8.3.5.5.9.7,1.4h0c.7,1.5,1.1,3,1.4,4.6h0c.2,1.3.3,2.6.3,3.9h.2Z"/><path class="cls-1" d="M168.1,22.4c-.9-1.4-2.3-2.6-4.3-3.7s-4.7-1.9-8.2-2.6c-2.5-.5-4.4-1-5.7-1.5s-2.2-1.1-2.6-1.8c-.4-.7-.7-1.4-.7-2.2,0-1.3.7-2.3,2.1-3,1.4-.7,3.1-1,5.1-1s3.3.2,4.6.6,2.6,1.2,3.7,2.3c.7.6,1.5,1.1,2.5,1.2s1.9,0,2.6-.5c.7-.6,1.1-1.2,1.2-2,0-.8-.3-1.6-.9-2.3-1.4-1.7-3.2-3-5.6-4-2.3-1-5-1.5-8.1-1.5s-4.6.4-6.8,1.1c-2.2.8-3.9,1.9-5.3,3.5-1.4,1.5-2.1,3.5-2.1,5.8v.2c0,1.7.5,3.2,1.4,4.6h0c.5.7,1,1.3,1.7,1.9,2.1,1.8,5.5,3.2,10.1,4.1,3.6.6,6.1,1.5,7.4,2.5,1.4,1,2,2.2,2,3.6s-.8,2.5-2.2,3.4-3.4,1.3-6.1,1.3-4-.4-5.8-1.1c-1.7-.8-3-1.6-3.8-2.5-.6-.7-1.4-1.1-2.3-1.2-.9-.1-1.8.2-2.7.9h0c-.8.6-1.2,1.3-1.3,2.2h0c-.1.9.2,1.8.9,2.5,1.5,1.5,3.6,2.8,6.4,3.8,2.7,1,5.7,1.5,8.9,1.5s6-.5,8.2-1.5,3.8-2.4,5-4.1c1.1-1.7,1.7-3.6,1.7-5.7s-.4-3.5-1.3-4.9h.3Z"/><path class="cls-1" d="M31.1,17.6c0,.6,0,1.1,0,1.7s0,1.1,0,1.6c0-.5,0-1.1,0-1.7s0-1.1,0-1.6Z"/><path class="cls-1" d="M37.8,19.2c0,.3,0,.6,0,.9,0-.3,0-.7,0-1v-1.1c0,.4,0,.8,0,1.2Z"/><path class="cls-1" d="M66.4,9.5h0c-1.1-2-2.5-3.7-4.1-5.1h0c-.8-.7-1.6-1.3-2.5-1.8C56.8.9,53.7,0,50.1,0s-6.8.8-9.7,2.5c-.9.5-1.7,1.1-2.4,1.7-1.8,1.4-3.2,3.2-4.3,5.2-1.4,2.4-2.2,5.2-2.4,8.1,0,.5,0,1,0,1.6s0,1.1,0,1.7c-.2,1.8-.7,3.5-1.5,5-1,1.9-2.5,3.5-4.3,4.6,0,0,0,0-.1,0-1.9,1.1-3.9,1.7-6.2,1.7s-4.3-.6-6.2-1.7c-1.9-1.1-3.3-2.6-4.4-4.6s-1.6-4.3-1.6-6.7.5-4.6,1.6-6.6c1.1-1.9,2.5-3.5,4.4-4.6,1.8-1.1,3.8-1.7,6.2-1.7V0c-.5,0-.9,0-1.4,0-3.3,0-6.3.8-9,2.5-2.6,1.6-4.8,3.9-6.3,6.8C.8,12.2,0,15.5,0,19.1s.8,6.9,2.5,9.8c1.6,2.9,3.9,5.2,6.8,6.9,2.9,1.7,6.1,2.5,9.7,2.5s6.6-.8,9.5-2.4c0,0,.2,0,.2-.1.9-.5,1.7-1.1,2.5-1.8h.1c1.1-1,2.1-2.1,3-3.3,1.4,2.2,3.2,3.9,5.3,5.2,2.7,1.7,5.7,2.5,9,2.5s6.4-.8,9-2.5c1.6-1,3.1-2.3,4.3-3.8v2.6c0,1,.3,1.8,1,2.5.2.2.3.3.5.4.6.4,1.2.6,2,.6s1.9-.3,2.5-1c.7-.7,1-1.5,1-2.5v-15.4c0-3.6-.8-6.9-2.5-9.8ZM60.7,25.8c-1.1,1.9-2.5,3.5-4.3,4.6-1.8,1.1-3.9,1.7-6.3,1.7s-4.4-.6-6.2-1.7c-1.9-1.1-3.3-2.7-4.4-4.6-1-1.8-1.5-3.6-1.6-5.7,0-.3,0-.6,0-.9s0-.8,0-1.2c.1-2,.6-3.8,1.5-5.5,1.1-2,2.5-3.5,4.4-4.6,1.9-1.1,3.9-1.7,6.2-1.7s4.4.6,6.3,1.7c1.8,1.1,3.3,2.7,4.3,4.6,1.1,2,1.6,4.2,1.6,6.7s-.5,4.6-1.6,6.6Z"/></g></svg>