<?xml version="1.0" encoding="UTF-8"?><svg id="Layer_2" xmlns="http://www.w3.org/2000/svg" viewBox="0 0 302.8 97.5"><defs><style>.cls-1{fill:#fefefe;stroke-width:0px;}</style></defs><g id="Layer_1-2"><path class="cls-1" d="M34,.2l.2,9.5c0,.5,0,1-.3,1.4-.4.5-1,.6-1.7.8-10.4,1.9-19,11.3-19.7,21.8-.7,10.5,6.8,21.1,17,23.6,10.3,2.4,21.9-4,25.1-14,1.6-5.1,1.1-10.7,2-16,1.5-8.8,7.2-16.7,14.7-21.3C79,1.2,88.4-.2,97.1,1.6c8.6,1.8,16.7,7,21.3,14.5,4.2,6.8,5.3,15,5.5,23,.1,6.9-.4,13.7-.3,20.6s-2.4,10.8-8.3,8.4c-3.5-1.4-5.1-5.6-4.8-9.3-6.3,6.8-15.8,10.6-25.1,10.1s-18.3-5.5-23.7-13.1c-9.6,12.1-27.9,16.4-41.8,9.8S-2.6,42.3.7,27.2C4,12.1,18.5.2,34,0v.2ZM68.2,34.9c-.2,12.5,9.2,22.6,21.3,22.8,12.1.2,21.5-9.4,21.9-22.2.4-13-8.7-23.2-21.1-23.4-12.7-.2-21.9,9.2-22.1,22.8Z"/><path class="cls-1" d="M301.9,53.5c-3.2,8.5-13.9,15-23.1,15.9-9.8,1-19.7-2.4-28-7.7-1.3-.8-2.6-1.7-3.4-3.1-1.3-2.2-.8-5.3,1-7.2s4.8-2.3,7.3-1.3c1.8.7,3.2,2.2,4.8,3.3,5.4,4.1,12.5,5.2,19.2,4.3,2.3-.3,4.6-.8,6.5-2.1s3.5-3.3,3.6-5.6c.2-2.4-1.2-4.7-3.1-6.2s-4.2-2.4-6.5-3c-6-1.7-12.3-2.5-18.1-4.9s-11.2-6.9-12.5-13c-1.3-5.9,1.7-12.1,6.3-15.9s10.7-5.4,16.7-5.7c8-.4,16.3,1.4,22.9,5.9,2,1.4,3.9,3.1,4.8,5.4s.4,5.2-1.6,6.6c-1.7,1.2-4,.9-5.9.1s-3.5-2.2-5.2-3.3c-5.2-3.3-11.7-4.4-17.6-2.9-3.1.8-6.4,2.7-6.9,5.8-.3,2.1.8,4.3,2.4,5.7s3.7,2.2,5.8,2.8c4.8,1.4,9.8,2.1,14.6,3.4s9.6,3.5,12.8,7.3c4.5,5.2,5.1,10.5,3.3,15.2Z"/><path class="cls-1" d="M216,12.1V1.8c15-1.8,29.2,9,32.8,25,3.8,16.5-2.4,31.6-15.9,38.6-24.2,12.5-50.8-3.3-51.2-30.4-.1-11.3-7.4-20.4-17.5-22.1-13.8-2.3-25.5,7.3-25.6,21.4-.2,18.6,0,37.3,0,55.9,0,5.1-2.7,7.7-7.2,7.1-4.4-.6-5.5-3.8-5.5-7.5,0-10.9-.1-21.8,0-32.7,0-9.2-.3-18.5.8-27.7,2-16.9,16.5-28.6,34-28.3,17.1.3,31,12.6,33,29.2.2,2,.5,3.9.6,5.9.7,14.2,10.5,23.1,23.9,21.6,13.2-1.4,21.4-13,19-26.9-1.8-10.3-8.1-16.5-18.7-18.4-.8-.1-1.6-.4-2.5-.6Z"/></g></svg>