<?xml version="1.0" encoding="UTF-8"?><svg id="Layer_2" xmlns="http://www.w3.org/2000/svg" viewBox="0 0 305.5 74.2"><defs><style>.cls-1{fill:#fff;}</style></defs><g id="Layer_1-2"><path class="cls-1" d="M22.3,22.7c-.4.4-.6.9-.6,1.5,0,1.2,1,2.2,2.2,2.2h20.9c5.4,0,10.2,2.2,13.7,5.9,3.2,3.4,5.2,8,5.2,13v9.6c0,10.4-8.5,18.9-18.9,18.9H0v-22h40.4c.6,0,1.1-.2,1.5-.6.4-.4.6-.9.6-1.5,0-1.2-1-2.2-2.2-2.2h-21.6c-9.1,0-16.7-6.5-18.5-15.1-.2-1.2-.4-2.5-.4-3.8v-9.6C0,8.5,8.5,0,18.9,0h45.2l-.5.5-.3.3-21.2,21.2h-18.2c-.6,0-1.1.2-1.5.6Z"/><path class="cls-1" d="M139.7,37.1c0,3.6-.5,7-1.4,10.2-.5,1.7-1.1,3.3-1.8,4.9-1.9,4.1-4.5,7.9-7.6,11-6.7,6.7-16,10.9-26.2,10.9h-36v-41.9h21.3v20.5h15.3c1.2,0,2.4-.2,3.6-.4,2.8-.7,5.3-2.1,7.3-4.1.3-.3.6-.6.8-.9,2.3-2.7,3.7-6.2,3.7-10s-.3-3.5-.9-5.1c-.8-2.2-2.1-4.2-3.8-5.9-2.8-2.7-6.5-4.4-10.7-4.4h-57.8L66.6.8l.8-.8h35.2c15.1,0,28.1,9,33.9,22,.6,1.4,1.2,2.9,1.6,4.4.6,1.9,1,3.9,1.3,5.9.2,1.6.3,3.2.3,4.9Z"/><path class="cls-1" d="M181.3,37v33.2h-3.4v-26.5l-13,22.3h-1.7l-13-22.2v26.4h-3.4v-33.2h2.9l14.4,24.6,14.3-24.6h2.9Z"/><path class="cls-1" d="M215.6,67.2v3h-23.5v-33.2h22.8v3h-19.2v11.8h17.2v3h-17.2v12.3h20Z"/><path class="cls-1" d="M230.3,40h-11.7v-3h26.8v3h-11.7v30.2h-3.5v-30.2Z"/><path class="cls-1" d="M270.2,61.3h-18.5l-4,8.9h-3.7l15.2-33.2h3.5l15.2,33.2h-3.7l-4-8.9ZM269,58.5l-8-17.8-8,17.8h15.9Z"/><path class="cls-1" d="M283.4,37h3.5v30.2h18.6v3h-22.1v-33.2Z"/></g></svg>